<?xml version="1.0" standalone="no"?><!DOCTYPE svg PUBLIC "-//W3C//DTD SVG 1.1//EN" "http://www.w3.org/Graphics/SVG/1.1/DTD/svg11.dtd"><svg class="icon" width="200px" height="199.42px" viewBox="0 0 1027 1024" version="1.1" xmlns="http://www.w3.org/2000/svg"><path fill="#13227a" d="M824.171 856.715H203.774c-18.412 0-34.044-13.15-37.259-31.269L76.66 315.221c-2.78-15.64 4.67-31.418 18.408-39.309 13.88-7.886 31.122-6.28 43.247 3.946l189.361 161.166 154.592-239.192c13.883-21.62 49.531-21.62 63.411 0l154.586 239.045L889.48 279.71c12.13-10.372 29.52-11.83 43.253-3.945 13.881 7.893 21.182 23.67 18.406 39.309L861.43 825.589c-3.214 17.977-18.852 31.126-37.259 31.126z m-588.686-75.544h556.977l66.194-375.654-142.168 120.979c-8.331 7.013-19.146 10.082-29.96 8.626-10.806-1.613-20.309-7.748-26.3-16.804L513.97 291.988l-146.255 226.33c-5.997 9.204-15.493 15.341-26.305 16.804-10.954 1.603-21.767-1.613-29.952-8.626L169.29 405.516l66.194 375.655zM824.17 978.866H203.774c-20.896 0-37.844-16.948-37.844-37.844s16.948-37.843 37.844-37.843h620.399c20.894 0 37.845 16.947 37.845 37.843s-16.952 37.844-37.847 37.844zM2.902 203.347a37.854 37.854 0 1 0 121.133 0 37.854 37.854 0 1 0-121.133 0z m452.292-96.38a37.853 37.853 0 1 0 121.13 0 37.853 37.853 0 1 0-121.13 0z m449.06 92.93a37.854 37.854 0 1 0 121.133 0 37.854 37.854 0 1 0-121.133 0z"  /></svg>