<?xml version="1.0" standalone="no"?><!DOCTYPE svg PUBLIC "-//W3C//DTD SVG 1.1//EN" "http://www.w3.org/Graphics/SVG/1.1/DTD/svg11.dtd"><svg class="icon" width="200px" height="200.00px" viewBox="0 0 1024 1024" version="1.1" xmlns="http://www.w3.org/2000/svg"><path fill="#13227a" d="M143.459854 942.748465l350.631776 0L494.09163 558.987151 143.459854 558.987151 143.459854 942.748465zM207.48096 622.772896l222.526119 0 0.127913 255.996418L207.421608 878.769314 207.48096 622.772896zM559.769468 942.748465l351.189478 0L910.958946 558.987151 559.769468 558.987151 559.769468 942.748465zM623.731222 622.772896l223.273133 0 0 255.996418L623.731222 878.769314 623.731222 622.772896zM859.118254 239.166101l51.842739-63.945381L774.132674 47.536666 591.220784 239.166101 559.769468 239.166101l0 255.864412 415.189094 0L974.958562 239.166101 859.118254 239.166101zM774.134721 137.981584l46.375214 37.230949-59.334363 63.953567L681.962461 239.166101 774.134721 137.981584zM623.731222 430.902984 623.731222 303.117622l287.271726 0 0.001023 127.785362L623.731222 430.902984zM494.090607 239.166101l-30.827099 0L280.565489 46.855144 143.459854 175.22072l51.982932 63.945381L79.4981 239.166101l0 255.864412 414.591483 0L494.089583 239.166101zM280.561395 137.299039l92.034113 101.866039-81.629135 0-57.057507-63.952544L280.561395 137.299039zM430.134992 430.902984 143.459854 430.902984 143.459854 303.117622l286.675138 0L430.134992 430.902984z" /></svg>