<?xml version="1.0" standalone="no"?><!DOCTYPE svg PUBLIC "-//W3C//DTD SVG 1.1//EN" "http://www.w3.org/Graphics/SVG/1.1/DTD/svg11.dtd"><svg class="icon" width="200px" height="199.80px" viewBox="0 0 1025 1024" version="1.1" xmlns="http://www.w3.org/2000/svg"><path fill="#13227a" d="M401.902481 326.2c12.5 12.5 32.8 12.4 45.3-0.1l138-138.6c30.8-25.9 64-43.6 98.8-52.7l0.1 0c37.4-9.9 75.8-8.8 114.4 3.3l0.1 0c34.5 10.7 67 30.3 93.9 56.7 26.5 25.9 46.4 57.4 57.6 91.2 11.8 36.3 13.1 72.5 3.8 107.5-4.5 17.1 5.6 34.6 22.7 39.1 2.8 0.7 5.5 1.1 8.2 1.1 14.2 0 27.1-9.5 30.9-23.8 12.5-47.2 10.9-95.6-4.8-143.8l-0.1-0.2c-14.5-43.4-39.9-83.8-73.6-116.8-34.2-33.5-75.5-58.4-119.7-72.1-49.5-15.6-101.4-17-149.9-4.1-44.5 11.6-86.5 34.1-124.9 66.6l-1 0.9-29.1 29.2-14.2-14.1-1.5-1.5-0.6-0.6c-42.5-40.4-89.6-67.6-140-80.9-48.4-12.6-100.1-11.1-149.5 4.4-44.6 13.9-86 38.8-119.7 72.2-34 33.3-59.5 73.6-73.9 116.7l0 0.1c-15.8 48-17.4 96.4-4.9 143.9l0 0.2c12.6 46.7 39.9 92.3 79.1 131.9l220.9 220.9c6.2 6.2 14.4 9.4 22.6 9.4s16.4-3.1 22.6-9.4c12.5-12.5 12.5-32.8 0-45.3L132.902481 496.7c-31.3-31.6-53-67.4-62.7-103.3-9.3-35.3-8-71.5 3.8-107.4 11.2-33.5 31.2-65 57.9-91.2l0.1-0.1c26.4-26.2 58.9-45.8 93.8-56.6l0.1 0c37.9-11.9 77.4-13.2 114.1-3.6 39.7 10.5 77.3 32.4 111.9 65.1l15.6 15.4-65.8 66.1C389.302481 293.4 389.402481 313.7 401.902481 326.2zM878.402481 414.1c-10.7-10.7-24.9-16.6-40-16.6-15.1 0-29.3 5.9-40.1 16.6L463.002481 749.4c-6.8 6.8-11.8 15.3-14.5 24.6l-50 176.5c-5.5 19.6-0.1 40.8 14.2 55.3 10.6 10.7 25.3 16.8 40.3 16.8 5 0 10-0.7 14.8-2l178.3-48.2c9.5-2.6 18.3-7.7 25.2-14.6l335.3-335.3c10.7-10.7 16.6-24.9 16.6-40.1 0-15.1-5.9-29.4-16.6-40.1L878.402481 414.1zM463.702481 955.4l40.1-141.5 102.9 102.9L463.702481 955.4zM659.502481 879.1 541.602481 761.3l296.7-296.7 117.9 117.9L659.502481 879.1z" /></svg>