<?xml version="1.0" standalone="no"?><!DOCTYPE svg PUBLIC "-//W3C//DTD SVG 1.1//EN" "http://www.w3.org/Graphics/SVG/1.1/DTD/svg11.dtd"><svg class="icon" width="200px" height="200.00px" viewBox="0 0 1024 1024" version="1.1" xmlns="http://www.w3.org/2000/svg"><path fill="#13227a" d="M509.866667 89.6C275.2 89.6 85.333333 279.466667 85.333333 514.133333 85.333333 748.8 275.2 938.666667 509.866667 938.666667c98.133333 0 189.866667-32 264.533333-91.733334 8.533333-6.4 10.666667-19.2 4.266667-29.866666-6.4-8.533333-19.2-10.666667-29.866667-4.266667C680.533333 866.133333 597.333333 896 509.866667 896c-211.2 0-384-170.666667-384-381.866667 0-211.2 170.666667-381.866667 384-381.866666 211.2 0 384 170.666667 384 381.866666 0 72.533333-19.2 140.8-57.6 202.666667-6.4 10.666667-2.133333 23.466667 6.4 27.733333 10.666667 6.4 23.466667 2.133333 27.733333-6.4 42.666667-66.133333 64-142.933333 64-224 0-234.666667-189.866667-424.533333-424.533333-424.533333zM507.733333 328.533333l44.8 89.6c8.533333 19.2 27.733333 32 49.066667 36.266667l98.133333 14.933333-72.533333 70.4c-14.933333 14.933333-21.333333 36.266667-17.066667 57.6l17.066667 98.133334-89.6-46.933334c-8.533333-4.266667-19.2-8.533333-29.866667-8.533333-10.666667 0-21.333333 2.133333-29.866666 8.533333l-89.6 46.933334 17.066666-98.133334c4.266667-21.333333-4.266667-42.666667-19.2-57.6L313.6 469.333333l98.133333-14.933333c21.333333-2.133333 40.533333-17.066667 49.066667-36.266667l46.933333-89.6m0-40.533333c-10.666667 0-21.333333 6.4-27.733333 17.066667l-46.933333 96c-4.266667 8.533333-12.8 14.933333-23.466667 17.066666l-106.666667 14.933334c-25.6 4.266667-36.266667 36.266667-17.066666 53.333333l76.8 74.666667c6.4 6.4 10.666667 17.066667 8.533333 27.733333l-19.2 106.666667c-4.266667 19.2 12.8 36.266667 29.866667 36.266666 4.266667 0 10.666667-2.133333 14.933333-4.266666l96-51.2c4.266667-2.133333 8.533333-4.266667 14.933333-4.266667 4.266667 0 10.666667 2.133333 14.933334 4.266667l96 51.2c4.266667 2.133333 10.666667 4.266667 14.933333 4.266666 17.066667 0 34.133333-17.066667 29.866667-36.266666l-19.2-106.666667c-2.133333-10.666667 2.133333-21.333333 8.533333-27.733333l76.8-74.666667c19.2-17.066667 8.533333-49.066667-17.066667-53.333333l-106.666666-14.933334c-10.666667-2.133333-19.2-8.533333-23.466667-17.066666l-46.933333-96c-6.4-10.666667-17.066667-17.066667-27.733334-17.066667" /></svg>