<?xml version="1.0" standalone="no"?><!DOCTYPE svg PUBLIC "-//W3C//DTD SVG 1.1//EN" "http://www.w3.org/Graphics/SVG/1.1/DTD/svg11.dtd"><svg class="icon" width="200px" height="200.00px" viewBox="0 0 1024 1024" version="1.1" xmlns="http://www.w3.org/2000/svg"><path fill="#13227a" d="M639.297829 382.7712c-17.2032-17.173943-37.829486-30.954057-60.328229-40.257829-22.498743-9.303771-46.811429-14.1312-71.153371-14.1312-24.341943 0-48.683886 4.827429-71.153371 14.1312-22.498743 9.303771-43.125029 23.054629-60.328229 40.257829-17.2032 17.173943-30.983314 37.800229-40.316343 60.240457-9.303771 22.469486-14.160457 46.752914-14.160457 71.0656 0 24.312686 4.827429 48.596114 14.160457 71.0656 9.303771 22.469486 23.083886 43.066514 40.316343 60.240457 17.2032 17.173943 37.829486 30.954057 60.328229 40.257829 22.469486 9.303771 46.811429 14.1312 71.153371 14.1312 24.341943 0 48.654629-4.827429 71.153371-14.1312 22.469486-9.303771 43.125029-23.054629 60.328229-40.257829 17.2032-17.173943 30.983314-37.770971 40.287086-60.240457 9.303771-22.440229 14.160457-46.752914 14.160457-71.0656 0-24.312686-4.856686-48.596114-14.160457-71.0656C670.3104 420.571429 656.530286 399.9744 639.297829 382.7712zM918.557257 467.529143c-16.647314-199.533714-162.962286-348.3648-362.788571-362.203429L555.768686 0l-85.4016 0 0 106.7008C276.128914 124.693943 122.090057 272.149943 105.442743 467.529143L0 467.529143l0 87.127771 105.442743 0c16.647314 195.3792 168.842971 343.2448 363.081143 362.642286L468.523886 1024l87.215543 0 0-105.325714c199.797029-13.867886 346.141257-164.512914 362.788571-364.046629L1024 554.627657 1024 467.529143 918.557257 467.529143zM512 847.082057c-184.5248 0-334.848-151.464229-334.848-334.379886 0-182.915657 151.698286-336.223086 334.848-336.223086 184.554057 0 334.848 153.307429 334.848 336.223086C846.848 695.588571 696.5248 847.082057 512 847.082057z" /></svg>