<?xml version="1.0" standalone="no"?><!DOCTYPE svg PUBLIC "-//W3C//DTD SVG 1.1//EN" "http://www.w3.org/Graphics/SVG/1.1/DTD/svg11.dtd"><svg class="icon" width="200px" height="200.00px" viewBox="0 0 1024 1024" version="1.1" xmlns="http://www.w3.org/2000/svg"><path fill="#13227a" d="M511.148609 64.396659c-247.170402 0-447.542966 200.372563-447.542966 447.538873 0 247.180636 200.372563 447.548082 447.542966 447.548082 247.188822 0 447.560362-200.36847 447.560362-447.548082C958.708971 264.768199 758.342548 64.396659 511.148609 64.396659L511.148609 64.396659zM511.148609 925.05857c-228.161467 0-413.118945-184.945199-413.118945-413.124062 0-228.157373 184.956456-413.114852 413.118945-413.114852 228.158397 0 413.132248 184.956456 413.132248 413.114852C924.284951 740.114394 739.312122 925.05857 511.148609 925.05857L511.148609 925.05857zM668.029636 488.230644c-5.110391-5.720282-9.118682-14.813381-9.118682-25.130354 0-21.685905 18.241456-40.580231 40.409338-40.580231 22.228257 0 40.99774 18.898419 40.99774 40.580231 0 21.147646-15.913435 38.282908-36.426631 41.138956l-61.505819 167.386288c-48.40443-6.257517-96.762811-9.67229-131.523499-9.67229-55.20123 0-95.610568 6.838755-130.883933 9.67229l-60.383252-167.945013c-19.901259 0-37.59934-18.872836-37.59934-40.580231 0-22.271236 18.820648-41.147142 41.019229-41.147142s40.412408 18.881023 40.412408 41.147142c0 6.30152-1.689479 11.978822-9.6815 24.562419l58.672284 66.843384 24.49488-118.837572c-15.966647-0.562818-31.931247-18.23634-31.931247-39.993876 0-23.979134 19.388583-43.418882 43.299155-43.418882 23.345708 0 43.24799 19.440771 43.24799 43.418882 0 13.147438-6.846942 28.579919-19.901259 34.858926L512.01535 548.220946l1.174756 0 38.70144-117.689423c-10.830673-8.579399-17.067724-21.11797-17.067724-34.854832 0-23.983227 19.338441-43.423999 43.249013-43.423999 23.345708 0 43.295062 19.440771 43.295062 43.423999 0 20.579711-12.004405 34.32169-29.604248 39.989783l19.922748 118.837572 56.349379-66.274426L668.029636 488.22962 668.029636 488.230644zM668.029636 488.230644" /></svg>